<mxfile host="app.diagrams.net" modified="2023-08-08T10:34:37.698Z" agent="Mozilla/5.0 (Windows NT 10.0; Win64; x64) AppleWebKit/537.36 (KHTML, like Gecko) Chrome/110.0.0.0 Safari/537.36" etag="SeDCf_6bLBsfun5zno1m" version="21.6.5" type="github">
  <diagram name="Page-1" id="12e1b939-464a-85fe-373e-61e167be1490">
    <mxGraphModel dx="2228" dy="1168" grid="1" gridSize="10" guides="1" tooltips="1" connect="1" arrows="1" fold="1" page="1" pageScale="1.5" pageWidth="1169" pageHeight="826" background="none" math="0" shadow="0">
      <root>
        <mxCell id="0" />
        <mxCell id="1" parent="0" />
        <mxCell id="3h-ct3h8venAboANHx74-8" value="" style="whiteSpace=wrap;html=1;aspect=fixed;fillColor=#fff2cc;strokeColor=#d6b656;" vertex="1" parent="1">
          <mxGeometry x="310" y="220" width="1300" height="1300" as="geometry" />
        </mxCell>
        <mxCell id="60da8b9f42644d3a-19" value="Forms&lt;div&gt;Calls-to-Action&lt;/div&gt;&lt;div&gt;Landing Pages&lt;/div&gt;" style="text;html=1;strokeColor=none;fillColor=none;align=center;verticalAlign=middle;whiteSpace=wrap;rounded=0;shadow=0;fontSize=14;fontColor=#FFFFFF;" parent="1" vertex="1">
          <mxGeometry x="480" y="835" width="280" height="90" as="geometry" />
        </mxCell>
        <mxCell id="3h-ct3h8venAboANHx74-40" value="" style="rounded=0;whiteSpace=wrap;html=1;fillColor=#dae8fc;strokeColor=#6c8ebf;" vertex="1" parent="1">
          <mxGeometry x="380" y="600" width="1130" height="280" as="geometry" />
        </mxCell>
        <mxCell id="3h-ct3h8venAboANHx74-3" value="&lt;span style=&quot;font-size: 41px;&quot;&gt;知识蒸馏&lt;/span&gt;" style="rounded=0;whiteSpace=wrap;html=1;fillColor=#ffe6cc;strokeColor=#d79b00;shape=step;perimeter=stepPerimeter;fixedSize=1;" vertex="1" parent="1">
          <mxGeometry x="410" y="690" width="333" height="161" as="geometry" />
        </mxCell>
        <mxCell id="3h-ct3h8venAboANHx74-5" value="&lt;font style=&quot;font-size: 35px;&quot;&gt;迁移学习&lt;/font&gt;" style="rounded=0;whiteSpace=wrap;html=1;fillColor=#ffe6cc;strokeColor=#d79b00;shape=step;perimeter=stepPerimeter;fixedSize=1;" vertex="1" parent="1">
          <mxGeometry x="1173" y="680" width="325" height="170" as="geometry" />
        </mxCell>
        <mxCell id="3h-ct3h8venAboANHx74-6" value="&lt;span style=&quot;font-size: 35px;&quot;&gt;跨领域数据&lt;/span&gt;" style="rounded=0;whiteSpace=wrap;html=1;fillColor=#ffe6cc;strokeColor=#d79b00;" vertex="1" parent="1">
          <mxGeometry x="385.5" y="1030" width="1134.5" height="140" as="geometry" />
        </mxCell>
        <mxCell id="3h-ct3h8venAboANHx74-7" value="&lt;font style=&quot;font-size: 35px;&quot;&gt;特征选择和变换&lt;/font&gt;" style="rounded=0;whiteSpace=wrap;html=1;fillColor=#ffe6cc;strokeColor=#d79b00;" vertex="1" parent="1">
          <mxGeometry x="385" y="910" width="1125" height="90" as="geometry" />
        </mxCell>
        <mxCell id="3h-ct3h8venAboANHx74-10" value="&lt;font style=&quot;font-size: 35px;&quot;&gt;领域适应方法&lt;/font&gt;" style="rounded=1;whiteSpace=wrap;html=1;fillColor=#d5e8d4;strokeColor=#82b366;" vertex="1" parent="1">
          <mxGeometry x="375" y="300" width="1120" height="130" as="geometry" />
        </mxCell>
        <mxCell id="3h-ct3h8venAboANHx74-11" value="&lt;font style=&quot;font-size: 35px;&quot;&gt;智能体交互&lt;/font&gt;" style="rounded=0;whiteSpace=wrap;html=1;fillColor=#ffe6cc;strokeColor=#d79b00;" vertex="1" parent="1">
          <mxGeometry x="380" y="470" width="1130" height="100" as="geometry" />
        </mxCell>
        <mxCell id="3h-ct3h8venAboANHx74-20" value="&lt;span style=&quot;font-size: 35px;&quot;&gt;增量学习&lt;/span&gt;" style="shape=step;perimeter=stepPerimeter;whiteSpace=wrap;html=1;fixedSize=1;fillColor=#ffe6cc;strokeColor=#d79b00;" vertex="1" parent="1">
          <mxGeometry x="785" y="690" width="350" height="160" as="geometry" />
        </mxCell>
        <mxCell id="3h-ct3h8venAboANHx74-43" value="&lt;font style=&quot;font-size: 35px;&quot;&gt;模型迭代&lt;/font&gt;" style="rounded=0;whiteSpace=wrap;html=1;fillColor=#b0e3e6;strokeColor=#0e8088;" vertex="1" parent="1">
          <mxGeometry x="380" y="600" width="1130" height="60" as="geometry" />
        </mxCell>
      </root>
    </mxGraphModel>
  </diagram>
</mxfile>
